<?xml version="1.0" encoding="utf-8"?>
<!-- Generator: Adobe Illustrator 27.0.1, SVG Export Plug-In . SVG Version: 6.00 Build 0)  -->
<svg version="1.1" id="Layer_1" xmlns="http://www.w3.org/2000/svg" xmlns:xlink="http://www.w3.org/1999/xlink" x="0px" y="0px"
	 viewBox="0 0 313.02 358.02" style="enable-background:new 0 0 313.02 358.02;" xml:space="preserve">
<style type="text/css">
	.st0{fill:none;}
	.st1{fill:#80D1E5;}
</style>
<g id="nlJO0o.tif">
	<g>
		<g>
			<path class="st0" d="M113.67,329.95c-28.72,0-57.43,0-86.15,0c0-59.18,0-118.36,0-177.55c0.77,1.58,2.13,2.15,3.78,2.15
				c5.69,0.01,11.38,0.01,17.07,0.01c0.76,0,1.34-0.3,1.83-0.92c0.94-1.21,1.18-2.48,0.38-3.8c-0.71-1.16-1.95-1.39-3.17-1.38
				c-5.44,0.05-10.89-0.14-16.33,0.12c-1.81,0.09-3.01,0.63-3.56,2.38c0-43.23,0-86.45,0-129.7c0.29,0,0.59,0,0.88,0
				c82.39,0,164.78,0,247.18,0c0.46,0,0.88-0.19,0.88,0.68c-0.03,102.58-0.03,205.17-0.03,307.75c0,0.09,0,0.17,0,0.26
				c-28.54,0-57.08,0-85.61,0c1.95-0.67,3.63-1.75,3.93-3.93c0.58-4.23-0.76-8.14-2.71-11.77c-1.94-3.62-4.71-6.71-7.5-9.7
				c-4.94-5.29-8.24-11.43-9.92-18.45c-1-4.18-1.36-8.44-1.64-12.71c-0.36-5.67-1.34-11.29-1.4-16.98c-0.04-3.23,3-6.03,6.2-5.78
				c2.52,0.2,4.45,2.14,5.42,5.45c2.91,9.98,8.56,18.13,16.21,25.09c5.02,4.57,9.89,9.36,13.02,15.57
				c3.72,7.37,4.88,15.28,5.22,23.4c0.1,2.36-0.05,4.82,1.62,6.89c1.67,2.06,3.87,2.92,6.32,2.06c1.83-0.64,2.79-2.1,2.79-3.98
				c0-6.75,0.22-13.5-0.67-20.23c-1.07-8.15-4.2-15.42-9.17-21.89c-2.9-3.78-6.38-7.08-9.7-10.5c-2.16-2.22-4.47-4.27-6.42-6.71
				c-3.6-4.5-5.79-9.64-7.23-15.13c-0.79-2.99,0.16-5.7,2.11-6.69c3.09-1.57,6.43-0.76,8.19,2.48c2.63,4.86,6.24,8.8,10.57,12.07
				c5.71,4.32,12.36,7.27,17.88,11.88c3.09,2.58,5.59,5.65,7.46,9.23c1.94,3.73,2.63,7.81,3.56,11.83c0.63,2.73,2.59,4.61,4.85,4.67
				c3.25,0.09,5.18-1.09,5.83-3.79c0.63-2.61-0.09-5.19-0.43-7.77c-1.16-8.68-4.72-16.19-11.12-22.22
				c-4.18-3.94-8.99-7.08-13.88-10.04c-2.88-1.74-5.65-3.57-8.16-5.82c-5.35-4.81-7.41-11.04-7.62-17.93
				c-0.27-9.04,0.04-18.09-0.19-27.14c-0.17-6.61-2.5-7.84-7.67-9.56c-3.97-1.33-8.13-0.97-12.21-0.22
				c-5.31,0.97-10.26,2.75-14.63,6.07c-3.28,2.49-6.54,5.02-10.48,6.55c-4.37,1.69-8.89,2.67-13.51,2.97
				c-6.1,0.4-12.12-0.24-17.97-2.27c-2.75-0.95-5.33-2.24-7.68-3.84c-2.98-2.04-5.91-4.18-9.07-5.92
				c-5.76-3.18-12.01-4.56-18.61-4.09c-2.58,0.18-5.11,0.72-7.39,2c-3.65,2.06-4.7,5.55-4.73,9.41c-0.07,8.3-0.05,16.61,0,24.91
				c0.01,2.7-0.28,5.33-0.9,7.96c-1.48,6.27-5.29,10.88-10.4,14.45c-3.71,2.59-7.78,4.68-11.48,7.29
				c-5.34,3.76-10.04,8.25-13.46,13.88c-3.88,6.39-5.35,13.44-5.13,20.86c0.05,1.77,2.42,4.02,4.16,4.1c4.05,0.18,5.66-0.9,6.4-5
				c1.75-9.76,6.55-17.51,14.75-23.08c3.98-2.7,8-5.36,12.15-7.79c5.73-3.36,9.76-8.26,13.15-13.79c1.6-2.62,3.53-3.47,6.6-2.66
				c2.24,0.6,3.73,2.62,3.53,5.35c-0.24,3.38-1.9,6.35-3.15,9.44c-2.47,6.12-7.12,10.58-11.61,15.15c-3.06,3.12-6.05,6.3-8.82,9.69
				c-4.27,5.25-7.09,11.16-8.79,17.67c-1.98,7.59-1.57,15.34-1.55,23.06c0.01,2.69,2.22,4.87,4.55,5.06
				c3.07,0.25,5.14-1.12,5.67-4.29c0.58-3.42,0.72-6.91,1.06-10.37c0.76-7.76,2.9-15.03,7.52-21.43c2.28-3.16,4.66-6.23,7.55-8.89
				c3.97-3.65,8.02-7.25,11.33-11.52c4.08-5.26,6.52-11.37,8.51-17.69c0.92-2.93,3.09-4.59,5.46-4.42c2.97,0.22,5.26,2.22,5.65,5.28
				c0.35,2.78-0.24,5.55-0.5,8.33c-0.57,5.98-1.01,11.97-1.64,17.94c-1.03,9.78-6.24,17.49-12.43,24.68
				c-3.7,4.3-7.32,8.63-8.33,14.47C109.51,324.87,109.66,328.53,113.67,329.95z M216.36,151.36c0-8.42,0-16.85,0-25.27
				c0-0.84,0.07-1.26,1.21-1.12c2.92,0.37,5.92,0.23,7.78-2.44c1.92-2.75,2.27-5.94,0.98-9.1c-0.68-1.67-2.16-2.75-3.49-3.94
				c-4.59-4.1-9.1-8.28-13.69-12.38c-6.09-5.43-12.21-10.83-18.35-16.21c-3.86-3.39-7.77-6.71-11.67-10.06
				c-6.3-5.42-12.19-11.33-18.88-16.29c-4.27-3.17-9.18-3.16-13.99-1.34c-4.26,1.62-7.04,5.31-10.39,8.18
				c-4.28,3.66-8.45,7.44-12.66,11.18c-5.94,5.28-11.89,10.56-17.81,15.85c-3.2,2.86-6.41,5.72-9.55,8.65
				c-5.34,4.99-11.32,9.26-16.21,14.75c-2.76,3.09-2.63,8.01,0.26,10.91c1.79,1.8,3.95,2.14,6.29,2.14c0.88,0,1.73,0.09,1.73,1.28
				c0.04,9.37,0.21,18.75,0.09,28.12c-0.11,8.74-0.13,17.46,0.27,26.19c0.09,1.95,2.87,4.51,4.44,4.05
				c4.66-1.37,9.38-1.88,14.21-1.36c5.66,0.6,10.98,2.31,15.97,5.04c3.82,2.09,7.09,5.03,10.87,7.16
				c8.09,4.55,16.77,5.65,25.84,3.99c4.95-0.9,9.6-2.65,13.65-5.64c3.75-2.76,7.52-5.46,11.92-7.08c8.18-3.01,16.53-4.33,25.19-2.25
				c2.75,0.66,5.2-0.91,5.57-3.48c0.22-1.56,0.36-3.14,0.37-4.71C216.38,167.91,216.36,159.63,216.36,151.36z M44.44,207.85
				c-0.1,1.34,0.15,2.5,1.42,3.08c1.24,0.57,2.48,0.45,3.64-0.33c0.94-0.63,1.89-1.24,2.86-1.8c3.71-2.14,7.47-4.19,11.13-6.41
				c2.46-1.5,2.44-4.52-0.08-5.54c-1.6-0.65-3.32-0.22-4.88,0.87c-3.71,2.6-7.53,5.04-11.58,7.09
				C45.72,205.42,44.07,205.92,44.44,207.85z M242.9,196.94c-0.9,0.2-1.59-0.15-2.2,0.45c-1.47,1.44-1.34,3.78,0.4,4.87
				c2.04,1.27,4.13,2.47,6.22,3.67c2.78,1.59,5.6,3.13,8.37,4.74c1.78,1.04,3.93,0.81,4.72-0.87c0.73-1.54,0.42-3.12-1.23-4.05
				c-3.41-1.92-6.89-3.72-10.19-5.86C247.04,198.63,245.14,197.12,242.9,196.94z M47.48,90.78c-0.72,0.21-1.25-0.03-1.77,0.31
				c-1.46,0.94-1.57,3.96-0.1,4.95c0.76,0.52,1.59,0.93,2.39,1.4c4.19,2.48,8.33,5.05,12.6,7.39c1.23,0.67,2.88,0.99,3.98-0.64
				c1.25-1.86,1.02-3.26-1.05-4.53c-3.34-2.05-6.78-3.95-10.17-5.92C51.41,92.61,49.56,91.29,47.48,90.78z M198.73,57.47
				c-0.13,1.34,0.43,2.38,1.78,2.78c1.48,0.43,2.7,0.19,3.64-1.34c2.94-4.77,5.47-9.79,8.73-14.38c0.69-0.98,0.89-2.28-0.06-3.3
				c-1.76-1.9-4.02-1.68-5.44,0.57c-2.02,3.21-4.05,6.44-5.85,9.78C200.51,53.46,198.55,54.94,198.73,57.47z M257.05,90.69
				c-0.87-0.05-1.85,0.34-2.77,1.02c-3.64,2.69-7.71,4.66-11.63,6.87c-2.24,1.27-3.68,3.44-2.85,5.16c0.68,1.41,2.87,1.69,4.93,0.55
				c4.78-2.64,9.54-5.33,14.14-8.28c1.48-0.95,1.58-2.17,1.23-3.62C259.75,90.92,258.6,90.7,257.05,90.69z M91.74,42.74
				c-0.13,0.82,0.13,1.58,0.54,2.29c0.76,1.31,1.53,2.61,2.31,3.9c2,3.3,3.97,6.62,6.04,9.89c0.96,1.52,2.45,1.77,3.99,0.95
				c1.59-0.86,1.92-2.33,1.07-3.81c-2.83-4.94-5.76-9.82-8.68-14.71c-0.87-1.45-2.41-1.33-3.66-0.98
				C92.4,40.53,91.51,41.4,91.74,42.74z M259.52,148.8c-1.08,0-2.16,0.07-3.23-0.01c-1.97-0.15-2.58,1.05-2.69,2.68
				c-0.13,1.82,0.84,2.85,2.61,2.9c3.01,0.08,6.02-0.08,9.02,0.05c2.73,0.12,5.45,0.19,8.17-0.03c2.22-0.18,2.98-1.06,2.84-3.22
				c-0.13-1.95-1.47-2.27-3.11-2.37C268.6,148.49,264.06,148.69,259.52,148.8z M155.39,32.66c0-2.73,0.05-5.46-0.02-8.18
				c-0.04-1.61-0.59-2.97-2.54-3.03c-1.95-0.06-2.97,0.92-3,2.94c-0.08,5.48-0.14,10.95-0.18,16.43c-0.01,1.97,1.11,3.12,2.96,3.12
				c1.59,0,2.78-1.35,2.78-3.18C155.4,38.05,155.39,35.36,155.39,32.66z"/>
			<path class="st1" d="M113.67,329.95c-4-1.42-4.16-5.07-3.51-8.81c1.01-5.84,4.63-10.17,8.33-14.47
				c6.19-7.19,11.4-14.91,12.43-24.68c0.63-5.97,1.08-11.96,1.64-17.94c0.26-2.77,0.86-5.55,0.5-8.33
				c-0.39-3.05-2.68-5.06-5.65-5.28c-2.37-0.18-4.54,1.49-5.46,4.42c-1.98,6.31-4.43,12.42-8.51,17.69
				c-3.31,4.27-7.36,7.87-11.33,11.52c-2.89,2.66-5.27,5.73-7.55,8.89c-4.63,6.4-6.76,13.68-7.52,21.43
				c-0.34,3.46-0.48,6.95-1.06,10.37c-0.54,3.17-2.61,4.53-5.67,4.29c-2.33-0.19-4.54-2.37-4.55-5.06
				c-0.02-7.71-0.43-15.47,1.55-23.06c1.7-6.51,4.51-12.42,8.79-17.67c2.77-3.4,5.75-6.57,8.82-9.69
				c4.48-4.57,9.14-9.03,11.61-15.15c1.24-3.08,2.9-6.06,3.15-9.44c0.2-2.73-1.3-4.76-3.53-5.35c-3.07-0.82-5,0.04-6.6,2.66
				c-3.38,5.54-7.42,10.43-13.15,13.79c-4.15,2.44-8.17,5.09-12.15,7.79c-8.2,5.57-13,13.32-14.75,23.08c-0.73,4.1-2.34,5.17-6.4,5
				c-1.74-0.08-4.11-2.33-4.16-4.1c-0.22-7.42,1.25-14.47,5.13-20.86c3.41-5.63,8.12-10.12,13.46-13.88
				c3.7-2.61,7.76-4.69,11.48-7.29c5.11-3.57,8.93-8.18,10.4-14.45c0.62-2.63,0.91-5.26,0.9-7.96c-0.04-8.3-0.06-16.61,0-24.91
				c0.03-3.87,1.09-7.35,4.73-9.41c2.27-1.28,4.81-1.82,7.39-2c6.6-0.47,12.84,0.91,18.61,4.09c3.15,1.74,6.08,3.88,9.07,5.92
				c2.35,1.61,4.93,2.89,7.68,3.84c5.85,2.02,11.87,2.67,17.97,2.27c4.62-0.3,9.14-1.27,13.51-2.97c3.94-1.53,7.2-4.06,10.48-6.55
				c4.37-3.32,9.32-5.11,14.63-6.07c4.08-0.74,8.24-1.1,12.21,0.22c5.16,1.73,7.5,2.96,7.67,9.56c0.23,9.05-0.09,18.1,0.19,27.14
				c0.21,6.9,2.27,13.12,7.62,17.93c2.51,2.26,5.28,4.08,8.16,5.82c4.89,2.96,9.7,6.1,13.88,10.04c6.4,6.03,9.96,13.54,11.12,22.22
				c0.34,2.58,1.06,5.16,0.43,7.77c-0.66,2.7-2.58,3.88-5.83,3.79c-2.25-0.06-4.22-1.94-4.85-4.67c-0.93-4.02-1.62-8.11-3.56-11.83
				c-1.87-3.59-4.37-6.65-7.46-9.23c-5.52-4.62-12.17-7.56-17.88-11.88c-4.33-3.27-7.94-7.22-10.57-12.07
				c-1.76-3.24-5.1-4.04-8.19-2.48c-1.94,0.99-2.89,3.7-2.11,6.69c1.45,5.49,3.63,10.63,7.23,15.13c1.95,2.44,4.26,4.49,6.42,6.71
				c3.33,3.42,6.8,6.71,9.7,10.5c4.96,6.47,8.09,13.74,9.17,21.89c0.89,6.73,0.67,13.48,0.67,20.23c0,1.87-0.96,3.34-2.79,3.98
				c-2.45,0.86-4.66,0-6.32-2.06c-1.67-2.07-1.53-4.52-1.62-6.89c-0.33-8.12-1.5-16.04-5.22-23.4c-3.13-6.21-8-11-13.02-15.57
				c-7.65-6.96-13.31-15.11-16.21-25.09c-0.96-3.31-2.89-5.25-5.42-5.45c-3.2-0.25-6.24,2.54-6.2,5.78
				c0.07,5.69,1.04,11.31,1.4,16.98c0.27,4.28,0.64,8.54,1.64,12.71c1.68,7.02,4.97,13.16,9.92,18.45c2.79,2.99,5.56,6.08,7.5,9.7
				c1.95,3.63,3.29,7.54,2.71,11.77c-0.3,2.18-1.98,3.26-3.93,3.93c-0.66,0-1.32,0-1.98,0c-3.47-0.61-4.83-3.03-5.47-6.18
				c-0.27-1.3-0.79-2.56-1.33-3.78c-2.25-5.07-6.44-8.58-10.16-12.44c-4.36-4.52-7.07-9.91-8.91-15.8
				c-1.54-4.89-2.26-9.94-2.76-15.04c-0.59-6.03-1.34-12.04-1.91-18.07c-0.25-2.62-2.6-5.15-5.63-5.66
				c-2.04-0.34-5.18,1.56-5.89,3.67c-1.24,3.7-1.14,7.62-1.6,11.44c-0.76,6.28-1.13,12.6-2.21,18.84
				c-1.68,9.74-6.18,17.98-13.75,24.36c-4.25,3.58-7.42,7.75-8.62,13.19c-0.59,2.67-1.74,4.61-4.41,5.47
				C115.34,329.95,114.51,329.95,113.67,329.95z M125.72,216.56c0-5.38-4.25-9.83-9.4-9.83c-5.03,0-9.3,4.09-9.3,8.9
				c0,5.62,4.22,10.16,9.44,10.16C121.4,225.79,125.72,221.49,125.72,216.56z M197.84,216.35c0-5.26-4.37-9.62-9.63-9.62
				c-4.77,0-8.82,3.97-8.91,8.55c-0.12,6.34,4.2,10.32,8.68,10.47C193.25,225.93,197.84,221.39,197.84,216.35z"/>
			<path class="st0" d="M116.18,329.95c2.67-0.86,3.82-2.8,4.41-5.47c1.2-5.44,4.37-9.61,8.62-13.19
				c7.57-6.38,12.07-14.62,13.75-24.36c1.07-6.24,1.45-12.56,2.21-18.84c0.46-3.82,0.36-7.73,1.6-11.44
				c0.71-2.12,3.85-4.02,5.89-3.67c3.03,0.51,5.39,3.04,5.63,5.66c0.56,6.03,1.32,12.04,1.91,18.07c0.5,5.1,1.22,10.15,2.76,15.04
				c1.85,5.88,4.55,11.27,8.91,15.8c3.72,3.86,7.92,7.37,10.16,12.44c0.54,1.22,1.07,2.48,1.33,3.78c0.65,3.15,2,5.58,5.47,6.18
				C164.62,329.95,140.4,329.95,116.18,329.95z"/>
			<path class="st1" d="M27.52,150.96c0.55-1.75,1.75-2.3,3.56-2.38c5.45-0.26,10.89-0.07,16.33-0.12c1.22-0.01,2.47,0.22,3.17,1.38
				c0.81,1.32,0.56,2.59-0.38,3.8c-0.48,0.62-1.07,0.92-1.83,0.92c-5.69,0-11.38,0-17.07-0.01c-1.66,0-3.01-0.58-3.78-2.15
				C27.52,151.92,27.52,151.44,27.52,150.96z"/>
			<path class="st1" d="M216.36,151.36c0,8.27,0.02,16.55-0.02,24.82c-0.01,1.57-0.15,3.16-0.37,4.71
				c-0.36,2.56-2.81,4.14-5.57,3.48c-8.66-2.08-17.01-0.76-25.19,2.25c-4.39,1.62-8.17,4.32-11.92,7.08
				c-4.06,2.99-8.7,4.74-13.65,5.64c-9.07,1.66-17.75,0.56-25.84-3.99c-3.78-2.13-7.05-5.07-10.87-7.16
				c-4.99-2.74-10.31-4.44-15.97-5.04c-4.83-0.52-9.56-0.01-14.21,1.36c-1.57,0.46-4.35-2.1-4.44-4.05
				c-0.4-8.73-0.39-17.46-0.27-26.19c0.12-9.37-0.05-18.74-0.09-28.12c-0.01-1.19-0.85-1.28-1.73-1.28
				c-2.34-0.01-4.5-0.34-6.29-2.14c-2.89-2.9-3.02-7.81-0.26-10.91c4.89-5.49,10.87-9.77,16.21-14.75c3.14-2.93,6.35-5.79,9.55-8.65
				c5.93-5.3,11.87-10.58,17.81-15.85c4.21-3.74,8.39-7.52,12.66-11.18c3.35-2.87,6.13-6.56,10.39-8.18
				c4.8-1.83,9.72-1.83,13.99,1.34c6.68,4.96,12.58,10.87,18.88,16.29c3.89,3.35,7.81,6.68,11.67,10.06
				c6.14,5.38,12.26,10.78,18.35,16.21c4.59,4.09,9.1,8.28,13.69,12.38c1.33,1.19,2.81,2.27,3.49,3.94c1.28,3.17,0.94,6.35-0.98,9.1
				c-1.86,2.67-4.86,2.8-7.78,2.44c-1.14-0.14-1.21,0.28-1.21,1.12C216.37,134.51,216.36,142.93,216.36,151.36z M193.16,132.33
				c0.06,0,0.12,0,0.18,0c0-3.27-0.15-6.54,0.04-9.8c0.21-3.54-1.39-6.14-3.56-8.67c-3.4-3.96-6.69-8.02-9.99-12.06
				c-2.29-2.81-4.99-4.94-8.62-5.74c-4.24-0.93-8.52-0.38-12.78-0.47c-1.5-0.03-3,0.33-4.38,0.99c-0.96,0.45-1.88,0.45-2.81-0.06
				c-1.14-0.63-2.46-0.92-3.68-0.91c-4.15,0.05-8.3-0.38-12.44,0.28c-3.36,0.53-6.1,2.06-8.27,4.61c-3.75,4.4-7.37,8.92-11.21,13.26
				c-2.44,2.76-3.9,5.72-3.82,9.51c0.13,6.56,0.03,13.13,0.04,19.69c0,0.41,0.12,0.82,0.16,1.23c0.47,4.32,3.92,6.77,6.29,9.86
				c2.48,3.22,5.45,6.06,8,9.22c3.03,3.76,7.01,5.48,11.63,5.81c1.86,0.13,3.77-0.02,5.67-0.18c2.46-0.21,4.59-0.95,6.57-2.24
				c1.49-0.98,2.62-1.74,4.49-0.26c2.85,2.27,6.4,2.88,10.03,2.72c1.5-0.07,3.02-0.16,4.5-0.23c3.7-0.17,6.48-2.02,8.77-4.48
				c3.95-4.23,7.59-8.74,11.35-13.15c1.61-1.88,3.66-3.62,3.77-6.28C193.29,140.77,193.16,136.54,193.16,132.33z"/>
			<path class="st1" d="M44.44,207.85c-0.37-1.93,1.29-2.43,2.51-3.04c4.06-2.05,7.87-4.49,11.58-7.09
				c1.56-1.09,3.27-1.53,4.88-0.87c2.52,1.03,2.54,4.04,0.08,5.54c-3.66,2.23-7.42,4.27-11.13,6.41c-0.98,0.56-1.93,1.17-2.86,1.8
				c-1.16,0.78-2.4,0.9-3.64,0.33C44.58,210.35,44.34,209.19,44.44,207.85z"/>
			<path class="st1" d="M242.9,196.94c2.24,0.18,4.14,1.69,6.09,2.95c3.3,2.13,6.77,3.94,10.19,5.86c1.65,0.93,1.96,2.52,1.23,4.05
				c-0.79,1.67-2.94,1.9-4.72,0.87c-2.77-1.61-5.59-3.15-8.37-4.74c-2.09-1.2-4.18-2.39-6.22-3.67c-1.75-1.09-1.87-3.43-0.4-4.87
				C241.3,196.79,241.99,197.14,242.9,196.94z"/>
			<path class="st1" d="M47.48,90.78c2.07,0.51,3.93,1.83,5.88,2.95c3.39,1.97,6.83,3.87,10.17,5.92c2.07,1.27,2.3,2.68,1.05,4.53
				c-1.1,1.63-2.76,1.31-3.98,0.64c-4.27-2.33-8.41-4.91-12.6-7.39c-0.79-0.47-1.63-0.88-2.39-1.4c-1.46-0.99-1.36-4.01,0.1-4.95
				C46.23,90.76,46.76,91,47.48,90.78z"/>
			<path class="st1" d="M198.73,57.47c-0.19-2.53,1.77-4.01,2.8-5.9c1.8-3.34,3.83-6.56,5.85-9.78c1.42-2.26,3.68-2.47,5.44-0.57
				c0.94,1.02,0.75,2.32,0.06,3.3c-3.25,4.59-5.79,9.61-8.73,14.38c-0.94,1.52-2.16,1.77-3.64,1.34
				C199.16,59.85,198.6,58.81,198.73,57.47z"/>
			<path class="st1" d="M257.05,90.69c1.55,0.02,2.7,0.23,3.05,1.71c0.35,1.46,0.24,2.67-1.23,3.62c-4.6,2.96-9.36,5.64-14.14,8.28
				c-2.06,1.14-4.26,0.85-4.93-0.55c-0.83-1.72,0.61-3.89,2.85-5.16c3.92-2.22,7.99-4.19,11.63-6.87
				C255.2,91.03,256.18,90.63,257.05,90.69z"/>
			<path class="st1" d="M91.74,42.74c-0.23-1.34,0.66-2.21,1.61-2.48c1.25-0.36,2.79-0.48,3.66,0.98c2.92,4.89,5.85,9.77,8.68,14.71
				c0.85,1.48,0.52,2.96-1.07,3.81c-1.54,0.83-3.02,0.57-3.99-0.95c-2.07-3.26-4.04-6.58-6.04-9.89c-0.78-1.29-1.56-2.59-2.31-3.9
				C91.86,44.32,91.61,43.56,91.74,42.74z"/>
			<path class="st1" d="M259.52,148.8c4.54-0.12,9.07-0.31,13.61-0.02c1.63,0.1,2.98,0.43,3.11,2.37c0.14,2.16-0.62,3.04-2.84,3.22
				c-2.72,0.22-5.44,0.15-8.17,0.03c-3-0.13-6.02,0.03-9.02-0.05c-1.77-0.05-2.74-1.07-2.61-2.9c0.11-1.63,0.72-2.83,2.69-2.68
				C257.36,148.87,258.45,148.8,259.52,148.8z"/>
			<path class="st1" d="M155.39,32.66c0,2.7,0,5.39,0,8.09c0,1.83-1.19,3.18-2.78,3.18c-1.85,0-2.98-1.15-2.96-3.12
				c0.04-5.48,0.1-10.95,0.18-16.43c0.03-2.01,1.06-3,3-2.94c1.95,0.06,2.5,1.43,2.54,3.03C155.44,27.2,155.39,29.93,155.39,32.66z"
				/>
			<path class="st0" d="M125.72,216.56c0,4.92-4.32,9.23-9.26,9.23c-5.22,0-9.44-4.54-9.44-10.16c0-4.82,4.28-8.91,9.3-8.9
				C121.47,206.74,125.72,211.18,125.72,216.56z"/>
			<path class="st0" d="M197.84,216.35c0,5.03-4.59,9.57-9.87,9.4c-4.48-0.15-8.8-4.12-8.68-10.47c0.09-4.58,4.15-8.55,8.91-8.55
				C193.47,206.73,197.84,211.09,197.84,216.35z"/>
			<path class="st0" d="M193.16,132.33c0,4.22,0.12,8.44-0.04,12.65c-0.11,2.66-2.16,4.4-3.77,6.28c-3.76,4.41-7.4,8.92-11.35,13.15
				c-2.3,2.46-5.07,4.31-8.77,4.48c-1.49,0.07-3,0.16-4.5,0.23c-3.63,0.16-7.18-0.44-10.03-2.72c-1.86-1.49-2.99-0.72-4.49,0.26
				c-1.98,1.29-4.1,2.04-6.57,2.24c-1.9,0.16-3.81,0.31-5.67,0.18c-4.63-0.33-8.61-2.05-11.63-5.81c-2.55-3.17-5.53-6-8-9.22
				c-2.37-3.08-5.83-5.54-6.29-9.86c-0.04-0.41-0.16-0.82-0.16-1.23c-0.01-6.56,0.09-13.13-0.04-19.69
				c-0.08-3.79,1.38-6.74,3.82-9.51c3.83-4.34,7.45-8.85,11.21-13.26c2.17-2.55,4.91-4.08,8.27-4.61c4.15-0.65,8.3-0.23,12.44-0.28
				c1.22-0.01,2.53,0.27,3.68,0.91c0.92,0.51,1.85,0.51,2.81,0.06c1.38-0.65,2.89-1.02,4.38-0.99c4.26,0.09,8.54-0.46,12.78,0.47
				c3.63,0.8,6.33,2.93,8.62,5.74c3.3,4.04,6.59,8.1,9.99,12.06c2.17,2.53,3.77,5.13,3.56,8.67c-0.2,3.26-0.04,6.53-0.04,9.8
				C193.28,132.33,193.22,132.33,193.16,132.33z M122.66,121.55c0,1.32,0,2.56,0,3.81c0,1.95,1.69,3.66,3.63,3.66
				c4.35,0,8.69,0,13.04,0c1.73,0,2.63,0.72,2.59,2.59c-0.07,4.17,0,8.33-0.04,12.5c-0.01,0.97,0.38,1.61,1.19,2.03
				c2.11,1.09,4.25,2.14,6.36,3.23c0.63,0.33,1,0.8,0.96,1.63c-0.08,2.04-0.07,4.08-0.03,6.11c0.03,1.47,0.73,2.52,2.31,2.45
				c1.48-0.07,2.02-1.12,2-2.54c-0.03-2.67,0-5.34-0.02-8c-0.01-0.75-0.05-1.55-0.81-1.96c-1.58-0.84-3.14-1.7-4.79-2.39
				c-1.92-0.8-3.29-1.68-2.91-4.2c0.31-2.02,0.12-4.13,0.04-6.2c-0.05-1.42,0.75-2.16,1.86-2.65c0.72-0.31,1.53-0.48,2.31-0.63
				c4.08-0.76,4.3-1.01,4.3-5.16c0-6.24,0-12.47,0-18.71c0-0.49,0.09-0.88,0.39-1.32c0.76-1.12,0.94-2.33,0.09-3.54
				c-0.86-1.21-2.07-1.55-3.44-1.3c-1.23,0.23-1.82,1.12-2.19,2.3c-0.44,1.41,0.95,2.26,0.96,3.39c0.09,6.08,0.11,12.17,0,18.26
				c-0.04,2.04-1.4,2.61-3.02,1.42c-0.96-0.7-1.94-0.97-3.13-0.95c-4.79,0.06-9.59,0.03-14.39,0.02c-2.56-0.01-3.9-1.53-3.49-4
				c0.16-0.99,0.52-1.95,0.63-2.94c0.15-1.46-0.17-2.85-1.51-3.66c-0.84-0.5-1.94-0.37-2.61,0.26c-1.72,1.61-3.53,3.14-4.67,5.33
				c-2.74,5.26-0.28,12.42,5.33,14.28c2.61,0.87,3.42,2.22,3.22,4.8c-0.2,2.53-0.11,5.1-0.01,7.64c0.05,1.21-0.32,2.16-0.99,3.1
				c-0.66,0.92-0.76,1.97-0.13,2.92c0.73,1.11,1.87,1.55,3.12,1.16c1.28-0.4,2.12-1.39,1.9-2.76c-0.68-4.2-0.15-8.43-0.33-12.63
				c-0.02-0.55,0.16-1.02,0.48-1.49c1.16-1.7,2.89-0.93,4.37-0.99c2.67-0.11,3.38-1.02,2.6-3.65c-0.21-0.72-0.61-1.08-1.41-1.07
				c-2.67,0.03-5.34-0.07-8,0.03c-3.23,0.13-5.38-1.34-6.75-4.16C120.8,125.76,121.25,122.67,122.66,121.55z M181.12,137.47
				c1.68,0,3.36-0.03,5.03,0.01c1.25,0.03,1.6-0.67,1.61-1.75c0.01-1.09-0.26-1.87-1.59-1.86c-3.66,0.02-7.31,0.04-10.97,0
				c-2.76-0.03-4.67,1.36-5.55,3.76c-0.72,1.98-1.72,2.59-3.76,2.41c-2.38-0.21-4.79-0.05-7.19-0.05c-3.51,0-3.53,0-3.5-3.47
				c0.01-0.85-0.02-1.77-0.89-2.02c-0.99-0.29-2.2-0.29-2.92,0.61c-1.56,1.92-1.36,4.09-0.46,6.21c0.72,1.7,2.18,2.43,3.96,2.44
				c4.73,0.03,9.47-0.11,14.2,0.06c2.16,0.08,3.1-0.67,3.57-2.72c0.74-3.24,1.39-3.63,4.74-3.63
				C178.67,137.47,179.89,137.47,181.12,137.47z M168.16,108.46c-0.22,0.71,0.48,1.78-0.3,2.12c-0.98,0.44-1.97-0.32-2.73-0.93
				c-1.2-0.96-2.28-2.07-3.38-3.16c-0.78-0.77-1.7-0.75-2.41-0.15c-0.84,0.71-1.88,1.73-0.94,2.88c2.1,2.57,5.05,3.99,7.98,5.36
				c1.03,0.48,2.02,0.84,2.15,2.19c0.1,1.07,0.58,1.92,1.51,2.58c1.58,1.14,3.24,2.19,4.56,3.66c1.41,1.55,2.94,1.39,3.73-0.51
				c0.69-1.65-0.45-2.76-1.71-3.43c-3.03-1.63-5.02-3.7-4.35-7.48c0.2-1.13,0.04-2.33,0.03-3.5c-0.01-0.86,0.04-1.65,0.58-2.43
				c0.88-1.28,0.77-2.64-0.41-3.71c-1.15-1.03-2.56-1.37-3.92-0.5c-1.44,0.92-1.97,2.32-1.11,3.91
				C167.97,106.35,168.37,107.31,168.16,108.46z M133.09,112.46c0,1.74-0.02,3.47,0.01,5.21c0.02,1.74,0.65,3.1,2.24,4.05
				c1.61,0.97,3.31,0.6,4.97,0.61c6.45,0.05,5.91,0.67,5.92-5.9c0-1.2-0.02-2.21-1.66-2c-1.34,0.18-3.35-0.75-3.04,1.98
				c0.14,1.26-0.18,2.17-1.74,2.18c-1.57,0.01-2.53-0.64-2.55-2.24c-0.05-3.11-0.01-6.23-0.02-9.34c0-0.39,0.12-0.67,0.37-1.02
				c0.83-1.16,0.86-2.56,0.23-3.73c-0.85-1.57-2.42-1.51-3.92-1.07c-1.3,0.38-1.59,1.44-1.76,2.7c-0.19,1.38,1.13,2.17,0.99,3.53
				C132.96,109.09,133.09,110.79,133.09,112.46z M175.91,147.9c0.62,2.47-0.5,4.22-2.36,5.72c-0.86,0.69-1.63,1.51-2.34,2.35
				c-0.49,0.57-0.92,1.25-0.56,2.11c0.34,0.78,0.93,1.31,1.75,1.3c1.17-0.02,1.88-0.95,2.77-1.6c3.6-2.61,5.25-5.96,4.55-10.45
				c-0.21-1.36,1.42-2.24,2.68-1.65c0.91,0.43,1.87,0.42,2.75,0c1.54-0.73,1.96-2.11,1.69-3.65c-0.18-1.01-0.75-1.87-1.91-2.12
				c-1.48-0.31-2.95-0.29-3.85,1.07c-0.41,0.61-0.85,0.99-1.45,1.15C176.66,142.96,175.14,144.66,175.91,147.9z M132.48,157.51
				c-0.34,1.92,0.48,2.84,1.65,3.27c1.53,0.56,3.05,0.31,4.04-1.16c0.76-1.12,0.86-2.3-0.18-3.4c-0.48-0.51-0.6-1.15-0.59-1.87
				c0.04-3.03,0.04-6.05,0-9.08c-0.01-0.96,0.29-1.75,0.99-2.37c1.13-1,1.61-2.17,0.92-3.58c-0.46-0.93-1.43-1.46-2.37-1.24
				c-1.56,0.37-3.04,1.31-3.24,2.97C133.02,146.67,134.91,152.5,132.48,157.51z M166.56,146.64c-1.35,0-2.7,0.06-4.04-0.02
				c-1.33-0.08-2.48,0.29-3.45,1.17c-0.57,0.52-1.12,1.16-0.94,2c0.13,0.6,0.76,0.47,1.22,0.45c1.09-0.06,2.3-0.07,2.65,1.13
				c0.39,1.3,0.61,2.75-0.27,4.02c-1.48,2.12-1.07,4.22,1.07,5.09c1.2,0.49,2.38,0.2,3.14-0.79c0.94-1.21,0.91-2.59,0.03-3.87
				c-0.95-1.38-0.7-4.66,0.41-5.35c0.43-0.27,0.88-0.1,1.29-0.22c1.81-0.55,5.22,1.51,5.15-1.9c-0.07-3.16-3.39-1.14-5.18-1.68
				C167.3,146.56,166.92,146.64,166.56,146.64z M166.9,126.44c0,3.54,0.13,3.66,3.67,3.66c3.26,0,6.53,0.01,9.79-0.01
				c0.84,0,1.63,0,2.33,0.6c1.05,0.9,2.14,0.69,3.27,0.05c1.32-0.75,1.52-1.98,1.17-3.17c-0.31-1.04-1.21-1.76-2.41-1.98
				c-1.51-0.29-2.43,1.21-3.92,1.13c-2.36-0.13-4.73-0.08-7.09-0.02c-1.42,0.04-2.15-0.39-1.98-1.94c0.11-1-0.33-1.59-1.46-1.5
				c-0.65,0.05-1.32,0-1.98,0.01c-0.9,0.01-1.37,0.48-1.4,1.37C166.89,125.24,166.9,125.84,166.9,126.44z M162.14,116.43
				c-1.73,0-3.14,1.36-3.15,3.05c-0.01,1.98,1.29,3.12,3.68,3.2c1.3,0.05,2.97-1.79,2.97-3.28
				C165.64,117.77,164.06,116.43,162.14,116.43z M187.23,119.82c0-2.09-0.97-3.23-2.72-3.22c-2.04,0.01-3.61,1.37-3.58,3.09
				c0.04,1.82,1.43,3.2,3.23,3.2C186.15,122.9,187.23,121.82,187.23,119.82z M146.58,152.23c0-1.85-1.16-3.06-2.95-3.07
				c-1.98,0-3.5,1.33-3.51,3.07c-0.01,1.56,1.65,3.19,3.27,3.22C145.17,155.49,146.57,154.08,146.58,152.23z M162.37,137.11
				c2.02,0,3.27-1.17,3.27-3.06c0-1.6-1.47-2.92-3.06-3.1c-1.92-0.22-3.4,1.59-3.39,3.12C159.19,135.95,160.43,137.11,162.37,137.11
				z M130.39,110.54c0-2.08-1.1-3.29-2.98-3.29c-1.8,0.01-3.14,1.35-3.14,3.15c0,1.69,1.6,3.34,3.18,3.3
				C129.25,113.66,130.39,112.43,130.39,110.54z M120.07,144.49c1.91,0,3.13-1.2,3.13-3.08c0.01-1.97-1.2-3.22-3.13-3.22
				c-1.77,0-2.98,1.25-2.99,3.08C117.08,143.3,118.17,144.48,120.07,144.49z M178.04,113.73c1.65,0.01,3.04-1.49,3.07-3.3
				c0.03-1.8-1.26-3.14-3.04-3.16c-1.66-0.02-3.08,1.47-3.08,3.23C175,112.37,176.27,113.72,178.04,113.73z M144.15,106.89
				c-1.86,0-3.18,1.23-3.14,2.91c0.04,1.63,1.5,3.02,3.15,3.03c1.93,0,3.15-1.19,3.13-3.08
				C147.28,107.95,146.12,106.89,144.15,106.89z"/>
			<path class="st1" d="M122.66,121.55c-1.41,1.12-1.86,4.21-0.98,6.02c1.37,2.82,3.52,4.29,6.75,4.16c2.66-0.1,5.33,0,8-0.03
				c0.8-0.01,1.2,0.35,1.41,1.07c0.78,2.63,0.07,3.54-2.6,3.65c-1.49,0.06-3.22-0.71-4.37,0.99c-0.32,0.47-0.5,0.94-0.48,1.49
				c0.18,4.21-0.36,8.43,0.33,12.63c0.22,1.37-0.62,2.36-1.9,2.76c-1.26,0.39-2.4-0.04-3.12-1.16c-0.63-0.96-0.53-2,0.13-2.92
				c0.67-0.94,1.04-1.89,0.99-3.1c-0.1-2.54-0.18-5.11,0.01-7.64c0.2-2.58-0.61-3.94-3.22-4.8c-5.61-1.86-8.07-9.02-5.33-14.28
				c1.14-2.2,2.95-3.72,4.67-5.33c0.68-0.63,1.77-0.76,2.61-0.26c1.35,0.8,1.67,2.2,1.51,3.66c-0.1,0.99-0.47,1.95-0.63,2.94
				c-0.4,2.47,0.93,4,3.49,4c4.8,0.01,9.59,0.04,14.39-0.02c1.19-0.02,2.16,0.25,3.13,0.95c1.63,1.19,2.99,0.62,3.02-1.42
				c0.11-6.08,0.09-12.17,0-18.26c-0.02-1.13-1.4-1.98-0.96-3.39c0.37-1.18,0.96-2.07,2.19-2.3c1.37-0.26,2.59,0.08,3.44,1.3
				c0.85,1.2,0.66,2.42-0.09,3.54c-0.3,0.44-0.39,0.83-0.39,1.32c0.01,6.24,0,12.47,0,18.71c0,4.15-0.21,4.39-4.3,5.16
				c-0.78,0.15-1.59,0.31-2.31,0.63c-1.12,0.49-1.91,1.23-1.86,2.65c0.07,2.07,0.26,4.17-0.04,6.2c-0.38,2.52,0.99,3.4,2.91,4.2
				c1.64,0.68,3.21,1.55,4.79,2.39c0.76,0.4,0.81,1.21,0.81,1.96c0.02,2.67-0.01,5.34,0.02,8c0.02,1.42-0.52,2.47-2,2.54
				c-1.57,0.08-2.28-0.98-2.31-2.45c-0.04-2.04-0.05-4.08,0.03-6.11c0.03-0.84-0.33-1.31-0.96-1.63c-2.11-1.09-4.24-2.14-6.36-3.23
				c-0.81-0.41-1.2-1.06-1.19-2.03c0.03-4.17-0.03-8.33,0.04-12.5c0.03-1.88-0.87-2.59-2.59-2.59c-4.35,0-8.69,0-13.04,0
				c-1.94,0-3.63-1.7-3.63-3.66C122.66,124.11,122.66,122.87,122.66,121.55z"/>
			<path class="st1" d="M181.12,137.47c-1.23,0-2.46,0-3.69,0c-3.35,0-4,0.39-4.74,3.63c-0.47,2.05-1.41,2.8-3.57,2.72
				c-4.73-0.17-9.47-0.03-14.2-0.06c-1.78-0.01-3.24-0.74-3.96-2.44c-0.9-2.12-1.1-4.29,0.46-6.21c0.73-0.9,1.93-0.89,2.92-0.61
				c0.87,0.25,0.9,1.17,0.89,2.02c-0.03,3.47-0.01,3.47,3.5,3.47c2.4,0,4.81-0.16,7.19,0.05c2.03,0.18,3.03-0.43,3.76-2.41
				c0.88-2.4,2.79-3.8,5.55-3.76c3.65,0.05,7.31,0.03,10.97,0c1.33-0.01,1.59,0.78,1.59,1.86c-0.01,1.08-0.36,1.78-1.61,1.75
				C184.48,137.44,182.8,137.47,181.12,137.47z"/>
			<path class="st1" d="M168.16,108.46c0.21-1.15-0.19-2.1-0.73-3.1c-0.86-1.58-0.33-2.99,1.11-3.91c1.35-0.86,2.77-0.53,3.92,0.5
				c1.18,1.07,1.3,2.43,0.41,3.71c-0.54,0.79-0.59,1.57-0.58,2.43c0.02,1.17,0.17,2.37-0.03,3.5c-0.67,3.78,1.32,5.85,4.35,7.48
				c1.26,0.67,2.4,1.79,1.71,3.43c-0.79,1.9-2.32,2.07-3.73,0.51c-1.33-1.47-2.98-2.52-4.56-3.66c-0.92-0.66-1.4-1.52-1.51-2.58
				c-0.13-1.35-1.12-1.71-2.15-2.19c-2.94-1.37-5.89-2.8-7.98-5.36c-0.94-1.15,0.1-2.17,0.94-2.88c0.72-0.6,1.63-0.62,2.41,0.15
				c1.1,1.08,2.18,2.2,3.38,3.16c0.76,0.61,1.75,1.37,2.73,0.93C168.64,110.24,167.94,109.17,168.16,108.46z"/>
			<path class="st1" d="M133.09,112.46c0-1.68-0.13-3.37,0.04-5.03c0.14-1.36-1.18-2.15-0.99-3.53c0.17-1.27,0.46-2.32,1.76-2.7
				c1.49-0.44,3.07-0.5,3.92,1.07c0.63,1.17,0.6,2.57-0.23,3.73c-0.25,0.35-0.37,0.62-0.37,1.02c0.01,3.11-0.03,6.23,0.02,9.34
				c0.02,1.61,0.98,2.25,2.55,2.24c1.56-0.01,1.89-0.91,1.74-2.18c-0.31-2.73,1.7-1.81,3.04-1.98c1.64-0.22,1.66,0.8,1.66,2
				c-0.01,6.57,0.53,5.95-5.92,5.9c-1.66-0.01-3.36,0.36-4.97-0.61c-1.59-0.96-2.22-2.31-2.24-4.05
				C133.07,115.94,133.09,114.2,133.09,112.46z"/>
			<path class="st1" d="M175.91,147.9c-0.76-3.24,0.76-4.94,3.72-5.75c0.6-0.16,1.04-0.54,1.45-1.15c0.9-1.36,2.37-1.39,3.85-1.07
				c1.16,0.24,1.73,1.11,1.91,2.12c0.27,1.54-0.14,2.92-1.69,3.65c-0.88,0.42-1.85,0.43-2.75,0c-1.26-0.6-2.89,0.29-2.68,1.65
				c0.7,4.49-0.94,7.83-4.55,10.45c-0.89,0.64-1.59,1.58-2.77,1.6c-0.82,0.01-1.42-0.52-1.75-1.3c-0.37-0.85,0.07-1.53,0.56-2.11
				c0.71-0.84,1.49-1.66,2.34-2.35C175.41,152.12,176.52,150.37,175.91,147.9z"/>
			<path class="st1" d="M132.48,157.51c2.43-5.01,0.55-10.83,1.21-16.46c0.2-1.67,1.68-2.6,3.24-2.97c0.94-0.22,1.91,0.3,2.37,1.24
				c0.69,1.41,0.21,2.59-0.92,3.58c-0.7,0.62-1,1.4-0.99,2.37c0.04,3.03,0.04,6.05,0,9.08c-0.01,0.72,0.11,1.36,0.59,1.87
				c1.04,1.1,0.94,2.28,0.18,3.4c-0.99,1.46-2.51,1.72-4.04,1.16C132.96,160.34,132.14,159.43,132.48,157.51z"/>
			<path class="st1" d="M166.56,146.64c0.36,0,0.74-0.09,1.07,0.01c1.8,0.55,5.11-1.48,5.18,1.68c0.08,3.41-3.34,1.35-5.15,1.9
				c-0.41,0.12-0.86-0.05-1.29,0.22c-1.1,0.7-1.36,3.97-0.41,5.35c0.88,1.28,0.91,2.67-0.03,3.87c-0.77,0.99-1.94,1.28-3.14,0.79
				c-2.14-0.87-2.54-2.97-1.07-5.09c0.88-1.27,0.66-2.71,0.27-4.02c-0.36-1.2-1.57-1.18-2.65-1.13c-0.46,0.02-1.09,0.15-1.22-0.45
				c-0.19-0.84,0.37-1.48,0.94-2c0.96-0.88,2.11-1.25,3.45-1.17C163.86,146.7,165.21,146.64,166.56,146.64z"/>
			<path class="st1" d="M166.9,126.44c0-0.6-0.01-1.2,0-1.8c0.02-0.9,0.5-1.36,1.4-1.37c0.66-0.01,1.32,0.04,1.98-0.01
				c1.13-0.09,1.57,0.5,1.46,1.5c-0.17,1.55,0.56,1.98,1.98,1.94c2.36-0.07,4.74-0.11,7.09,0.02c1.49,0.08,2.41-1.41,3.92-1.13
				c1.2,0.23,2.1,0.94,2.41,1.98c0.35,1.19,0.15,2.42-1.17,3.17c-1.13,0.64-2.23,0.85-3.27-0.05c-0.71-0.6-1.49-0.61-2.33-0.6
				c-3.26,0.02-6.53,0.01-9.79,0.01C167.03,130.1,166.9,129.97,166.9,126.44z"/>
			<path class="st1" d="M162.14,116.43c1.93,0,3.5,1.34,3.5,2.97c0,1.49-1.67,3.32-2.97,3.28c-2.39-0.08-3.69-1.22-3.68-3.2
				C159,117.78,160.41,116.42,162.14,116.43z"/>
			<path class="st1" d="M187.23,119.82c0,2-1.08,3.08-3.07,3.08c-1.8,0-3.19-1.38-3.23-3.2c-0.04-1.72,1.53-3.08,3.58-3.09
				C186.26,116.59,187.23,117.74,187.23,119.82z"/>
			<path class="st1" d="M146.58,152.23c0,1.84-1.41,3.26-3.2,3.23c-1.62-0.03-3.28-1.66-3.27-3.22c0.01-1.75,1.53-3.08,3.51-3.07
				C145.42,149.17,146.58,150.38,146.58,152.23z"/>
			<path class="st1" d="M162.37,137.11c-1.94,0-3.18-1.16-3.19-3.04c-0.01-1.53,1.47-3.34,3.39-3.12c1.59,0.18,3.07,1.49,3.06,3.1
				C165.64,135.95,164.39,137.11,162.37,137.11z"/>
			<path class="st1" d="M130.39,110.54c0,1.89-1.14,3.12-2.93,3.17c-1.58,0.04-3.18-1.61-3.18-3.3c0-1.8,1.34-3.15,3.14-3.15
				C129.29,107.25,130.39,108.46,130.39,110.54z"/>
			<path class="st1" d="M120.07,144.49c-1.89,0-2.99-1.19-2.98-3.22c0.01-1.83,1.22-3.08,2.99-3.08c1.92,0,3.13,1.25,3.13,3.22
				C123.19,143.29,121.97,144.49,120.07,144.49z"/>
			<path class="st1" d="M178.04,113.73c-1.77-0.01-3.04-1.36-3.05-3.24c-0.01-1.76,1.42-3.25,3.08-3.23
				c1.78,0.02,3.06,1.36,3.04,3.16C181.08,112.23,179.69,113.73,178.04,113.73z"/>
			<path class="st1" d="M144.15,106.89c1.97,0,3.13,1.05,3.15,2.85c0.01,1.89-1.2,3.09-3.13,3.08c-1.65,0-3.11-1.4-3.15-3.03
				C140.97,108.12,142.29,106.89,144.15,106.89z"/>
		</g>
	</g>
</g>
</svg>
